<svg width="58" height="58" viewBox="0 0 58 58" fill="none" xmlns="http://www.w3.org/2000/svg">
<rect width="57.2554" height="57.2554" transform="translate(0.616699)" fill="#F6F1EB"/>
<path fill-rule="evenodd" clip-rule="evenodd" d="M31.2939 22.0903C31.3215 21.9822 31.3597 21.8758 31.3757 21.7659C31.4555 21.2093 31.5419 20.6531 31.6025 20.0943C31.7438 18.7863 31.9377 17.4792 31.9897 16.1671C32.0613 14.3815 32.1806 12.6066 32.5238 10.8512C32.6394 10.2594 32.7777 9.66692 33.158 9.17433C33.5024 8.72691 33.7538 8.69195 34.2027 9.03654C34.6349 9.36841 34.917 9.80902 35.0099 10.3477C35.1316 11.0528 35.2741 11.7576 35.3403 12.4686C35.4777 13.933 35.5884 15.4003 35.6748 16.8688C35.7561 18.2637 35.7913 19.6614 35.8473 21.0577C35.8492 21.0967 35.8508 21.1355 35.8549 21.1743C35.9519 22.1759 36.0615 23.1758 36.1421 24.1785C36.2161 25.1056 36.2494 26.036 36.325 26.9633C36.337 27.1138 36.453 27.2727 36.5587 27.3967C37.3192 28.2915 37.5712 29.35 37.3428 30.4494C37.1921 31.1747 36.8392 31.8829 36.4596 32.5324C35.8705 33.5391 35.2012 34.5023 34.5308 35.4598C33.7799 36.5335 33.3926 37.6908 33.4167 39.0088C33.4433 40.465 33.4548 41.9157 33.6919 43.3606C33.921 44.756 34.0952 46.16 34.2716 47.5633C34.3566 48.2355 34.4113 48.9129 34.4355 49.5891C34.4428 49.8011 34.3546 50.052 34.2273 50.2258C33.7179 50.9218 33.0406 51.416 32.1987 51.6491C31.8249 51.7524 31.4274 51.7724 31.0419 51.8339C29.5177 52.0773 27.9819 51.9713 26.4499 51.9878C26.3532 51.9883 26.2532 51.9701 26.1597 51.9436C25.0849 51.638 23.9968 51.3711 22.9422 51.0088C22.1247 50.7271 22.007 50.538 22.1754 49.6247C22.4472 48.1567 22.822 46.7084 23.1255 45.2459C23.469 43.5919 23.8028 41.9364 23.7268 40.2305C23.699 39.6194 23.6119 39.034 23.321 38.4882C23.0099 37.9042 22.7014 37.3194 22.3898 36.7353C21.7789 35.5896 21.4979 34.3366 21.1787 33.096C20.8626 31.867 20.8614 30.6017 20.7491 29.3498C20.7006 28.8091 20.6528 28.2672 20.6411 27.7254C20.62 26.7361 20.6266 25.7459 20.6204 24.7564C20.6181 24.3342 20.6266 23.9115 20.6048 23.4904C20.5719 22.8532 20.5005 22.2176 20.4812 21.58C20.4761 21.4038 20.557 21.1909 20.6698 21.0515C21.0351 20.6005 21.5383 20.3435 22.078 20.134C22.5401 19.9547 22.9601 20.0386 23.3888 20.2116C23.4155 20.2225 23.4593 20.1921 23.543 20.1658C23.5143 19.8312 23.4865 19.4857 23.4541 19.1406C23.3396 17.9232 23.1696 16.7078 23.1223 15.4879C23.0642 13.9934 23.0802 12.4942 23.1223 10.999C23.1402 10.3652 23.2693 9.72685 23.4138 9.10577C23.5333 8.59025 23.8656 8.35712 24.3189 8.33487C24.9806 8.30264 25.3349 8.48469 25.5552 9.0102C25.6602 9.25968 25.7386 9.5255 25.787 9.79109C26.0304 11.1293 26.2105 12.4724 26.2682 13.836C26.3125 14.8807 26.5034 15.9188 26.6011 16.9621C26.7343 18.3929 26.8366 19.8264 26.9648 21.2572C26.9855 21.4894 27.0721 21.716 27.1286 21.9448C27.1805 21.94 27.2325 21.9357 27.2842 21.9309C27.2986 21.7119 27.3239 21.4926 27.3257 21.2731C27.3333 20.437 27.3138 19.5999 27.3409 18.7643C27.3804 17.5419 27.488 16.3213 27.5013 15.0991C27.5291 12.5528 27.504 10.0063 27.68 7.46318C27.74 6.58923 28.0759 5.88416 28.8484 5.42516C29.3412 5.1321 29.7715 5.22449 30.0622 5.69802C30.2118 5.9425 30.3241 6.22239 30.3921 6.50092C30.8404 8.32261 30.953 10.1824 30.9996 12.0479C31.032 13.3103 31.0492 14.5729 31.0787 15.8348C31.0957 16.5535 31.1336 17.2715 31.1446 17.9902C31.1561 18.7461 31.163 19.5027 31.1421 20.2582C31.1248 20.8665 31.0787 21.4731 31.1536 22.0774C31.2013 22.0817 31.2478 22.086 31.2939 22.0903ZM27.8921 27.6854C27.0445 28.2228 26.1361 28.3678 25.2198 28.4273C24.4969 28.4743 23.7624 28.4854 23.0435 28.4137C22.2519 28.3344 21.6674 27.8639 21.2856 27.1779C21.2072 27.0364 21.2015 26.8401 21.2072 26.6707C21.2286 26.056 21.2357 26.0562 20.9701 25.4134C20.9701 26.2472 20.9343 26.9915 20.9782 27.7311C21.0434 28.8318 21.1594 29.9298 21.2626 31.0278C21.3168 31.6067 21.3359 32.196 21.4664 32.7587C21.6943 33.7414 21.9487 34.7239 22.2825 35.6752C22.5249 36.3665 22.8654 37.0361 23.2473 37.6651C23.8506 38.6585 24.1691 39.6902 24.1534 40.8629C24.1378 42.0358 23.9885 43.184 23.7674 44.3272C23.4731 45.8511 23.1517 47.3692 22.8381 48.889C22.7873 49.1355 22.7034 49.3759 22.6598 49.6227C22.609 49.9049 22.5858 50.1911 22.5506 50.4749C22.6621 50.5398 22.7225 50.5934 22.793 50.614C23.8639 50.9275 24.9346 51.2421 26.0094 51.542C26.2137 51.5987 26.4368 51.609 26.6509 51.6051C27.8682 51.5806 29.0885 51.5794 30.3034 51.502C31.1186 51.4505 31.9352 51.3565 32.6815 50.9332C33.195 50.6424 33.6184 50.2615 33.9137 49.7907C34.0775 49.5296 34.0644 49.1153 34.0258 48.7821C33.8117 46.935 33.5925 45.0872 33.3218 43.2478C33.1026 41.7646 33.0275 40.2802 33.0213 38.7842C33.0148 37.4325 33.4015 36.2332 34.1797 35.1295C34.8311 34.2058 35.4806 33.276 36.0523 32.3043C36.4344 31.6557 36.7395 30.9472 36.9709 30.2317C37.2992 29.2134 36.7094 27.7095 35.8338 27.0712C34.3107 25.9618 32.7044 24.9877 30.9989 24.1755C30.3016 23.8432 29.5811 23.5674 28.7953 23.6248C28.3298 23.6591 27.8535 23.7445 27.4158 23.8988C26.6769 24.159 25.9598 24.4829 25.2409 24.7968C24.3791 25.1734 23.5205 25.5589 22.6694 25.9591C22.3891 26.0912 22.1109 26.2521 21.8761 26.4508C21.5316 26.7416 21.5388 27.1318 21.8317 27.4805C22.1143 27.8178 22.5038 27.9921 22.915 28.0087C24.0903 28.0559 25.2754 28.131 26.4212 27.7667C26.7922 27.6487 27.1488 27.482 27.5011 27.3147C27.8439 27.1518 27.9066 27.1554 28.1173 27.4723C28.3647 27.8439 28.5869 28.2346 28.8603 28.5864C29.7137 29.6824 30.7271 30.5291 32.2162 30.6085C32.3593 30.6163 32.4967 30.7302 32.6178 30.8635C32.1666 31.0719 31.7431 30.9731 31.3277 30.8271C30.572 30.5622 29.9349 30.1087 29.3685 29.5584C29.1735 29.3689 29.0081 29.1498 28.8245 28.9389C27.9112 29.4781 27.2973 30.2006 26.6424 30.8977C25.9738 31.6092 25.6733 32.5076 25.1851 33.3228C25.0093 32.9042 25.1488 32.5328 25.2818 32.1637C25.552 31.4173 26.0145 30.7892 26.5772 30.2406C27.1755 29.6576 27.8089 29.1094 28.4661 28.5106C28.3013 28.2725 28.1051 27.991 27.8921 27.6854ZM27.0493 23.549C28.168 23.0516 29.2741 23.1034 30.3609 23.5633C32.1199 24.3074 33.7423 25.2967 35.3012 26.3897C35.4453 26.4909 35.5884 26.5938 35.7357 26.69C35.7628 26.7077 35.8085 26.6978 35.9232 26.7068C35.8834 26.1675 35.8492 25.6383 35.803 25.1099C35.7458 24.455 35.6541 23.8023 35.6212 23.1463C35.5503 21.7119 35.527 20.275 35.4453 18.841C35.3807 17.7212 35.2481 16.6057 35.1631 15.4873C35.1149 14.8487 35.1257 14.2056 35.0675 13.5682C34.9653 12.4513 34.9088 11.3247 34.6098 10.2362C34.5301 9.94636 34.387 9.6449 34.1887 9.4229C33.8748 9.07218 33.4454 9.15821 33.2481 9.57839C33.1247 9.84126 33.0034 10.1193 32.9606 10.4022C32.8177 11.3402 32.7003 12.282 32.5937 13.2245C32.5245 13.8397 32.491 14.4583 32.4418 15.0757C32.4299 15.2303 32.4172 15.3849 32.4101 15.5397C32.3387 17.2422 32.3141 18.9484 31.9623 20.6279C31.8787 21.025 31.858 21.4343 31.7836 21.8338C31.753 22.0013 31.682 22.1727 31.5876 22.3157C31.464 22.5034 31.2714 22.6249 31.0329 22.5429C30.8027 22.4642 30.7404 22.2957 30.7421 22.0408C30.7535 20.1365 30.7565 18.2317 30.734 16.3276C30.7145 14.6569 30.7012 12.9846 30.6076 11.317C30.5153 9.67146 30.4236 8.02093 30.0303 6.40536C29.8196 5.54275 29.5599 5.45263 28.8525 6.01378C28.4256 6.35292 28.1862 6.78331 28.14 7.30519C28.0667 8.1367 27.998 8.97025 27.9819 9.80426C27.9438 11.7669 27.9617 13.7312 27.9121 15.6936C27.8671 17.459 27.766 19.2228 27.6796 20.9871C27.6635 21.3155 27.5796 21.6408 27.5585 21.9695C27.5456 22.1713 27.5084 22.3205 27.2752 22.3243C27.064 22.328 26.869 22.2626 26.8184 22.0367C26.733 21.659 26.65 21.2781 26.6089 20.8938C26.4474 19.3876 26.2973 17.8803 26.1533 16.3726C26.0255 15.0398 25.9357 13.703 25.7829 12.373C25.6673 11.3713 25.5008 10.3734 25.3133 9.38203C25.2021 8.79296 25.1276 8.76141 24.7173 8.74484C24.2431 8.72577 23.9441 8.88218 23.8293 9.33732C23.688 9.89937 23.56 10.4803 23.5466 11.0557C23.5097 12.7063 23.5044 14.3591 23.5443 16.0098C23.5676 16.9389 23.7203 17.8646 23.7856 18.7938C23.8807 20.1494 23.9673 21.506 24.0216 22.8635C24.0452 23.465 24.0953 24.0536 24.2587 24.6502C25.2331 24.2693 26.1574 23.9454 27.0493 23.549ZM23.4012 25.0876C23.8074 24.8938 23.8646 24.8225 23.7831 24.415C23.6032 23.5118 23.6468 22.602 23.6411 21.6924C23.6402 21.5176 23.6216 21.3423 23.6344 21.1691C23.6799 20.5535 23.1958 20.3256 22.547 20.4402C22.2637 20.4904 21.9781 20.6032 21.7272 20.7455C21.1774 21.0577 20.8219 21.4451 20.8601 22.1806C20.9265 23.4689 21.2796 24.6858 21.5362 25.9441C22.1984 25.6408 22.8043 25.3727 23.4012 25.0876Z" fill="black"/>
</svg>
