<svg width="59" height="58" viewBox="0 0 59 58" fill="none" xmlns="http://www.w3.org/2000/svg">
<rect width="57.2554" height="57.2554" transform="translate(0.87207)" fill="#F6F1EB"/>
<path fill-rule="evenodd" clip-rule="evenodd" d="M32.1128 22.2952C32.1503 22.1821 32.2075 22.0715 32.2224 21.9555C32.2859 21.4688 32.293 20.9707 32.402 20.4953C32.716 19.127 32.6797 17.7266 32.824 16.3434C32.9705 14.9413 33.0174 13.5287 33.1744 12.1283C33.2594 11.372 33.4532 10.6223 33.6604 9.88695C33.7459 9.58098 33.979 9.30995 34.1718 9.04214C34.3323 8.81984 34.5429 8.8118 34.7971 8.938C35.3748 9.22489 35.6872 9.72879 35.8405 10.3023C36.1447 11.4409 36.2187 12.6207 36.3272 13.7906C36.387 14.4356 36.3658 15.0878 36.4139 15.7342C36.4971 16.867 36.6637 17.9969 36.6886 19.1305C36.7272 20.8598 36.7612 22.5851 36.9628 24.3064C37.0764 25.2782 37.0966 26.2607 37.1817 27.2363C37.1948 27.3896 37.307 27.5514 37.4113 27.6779C38.1472 28.5703 38.3984 29.6316 38.1987 30.7162C38.0596 31.4691 37.6837 32.2047 37.2952 32.8796C36.7083 33.8998 36.0173 34.86 35.3714 35.8469C34.9396 36.5069 34.4987 37.1759 34.3769 37.9676C34.1302 39.5703 34.2348 41.1815 34.3815 42.7861C34.4532 43.5661 34.6137 44.3376 34.718 45.1152C34.9114 46.5525 35.1104 47.9885 35.2686 49.4294C35.3125 49.8267 35.3449 50.3103 35.1631 50.6278C34.8567 51.163 34.3994 51.6124 33.8118 51.9068C33.1838 52.222 32.5326 52.3572 31.8388 52.4425C30.3075 52.6319 28.7754 52.5593 27.243 52.574C27.1655 52.5753 27.086 52.5579 27.0111 52.536C25.9368 52.2255 24.8545 51.9404 23.7923 51.5928C23.0297 51.3432 22.9162 51.105 22.9893 50.3106C22.9969 50.2329 23.0107 50.1547 23.0274 50.0779C23.3447 48.6002 23.6716 47.1235 23.9787 45.6435C24.3228 43.9888 24.6256 42.3298 24.5578 40.6243C24.5341 40.0239 24.4359 39.4515 24.1635 38.917C23.8957 38.3922 23.6146 37.874 23.3341 37.3552C22.5953 35.9888 22.2488 34.4918 21.9137 32.9969C21.7769 32.3879 21.744 31.7532 21.6925 31.1279C21.607 30.0926 21.5185 29.0569 21.4813 28.0193C21.4445 26.999 21.4739 25.9763 21.4677 24.9549C21.4647 24.5262 21.4525 24.0973 21.4295 23.6688C21.396 23.0428 21.3286 22.418 21.3199 21.7918C21.3169 21.5955 21.4105 21.3594 21.5378 21.2077C21.9698 20.695 22.5539 20.433 23.1911 20.2447C23.6467 20.1102 23.9895 20.3631 24.378 20.4672C24.4513 20.4865 24.5212 20.5182 24.6205 20.5546C25.6964 19.5976 26.8736 19.578 28.0759 20.2691C28.1283 20.1835 28.1637 20.1525 28.1648 20.1201C28.2248 18.7449 28.3039 17.3703 28.3333 15.9942C28.3788 13.8692 28.3823 11.7435 28.4198 9.61845C28.4331 8.87203 28.4936 8.12675 28.5347 7.38056C28.5779 6.58425 28.9092 5.94611 29.5745 5.48956C30.1354 5.10382 30.6285 5.19738 30.9563 5.78703C31.0884 6.02426 31.1859 6.29001 31.2489 6.55506C31.6845 8.38077 31.7783 10.2472 31.8503 12.1115C31.9018 13.429 31.8866 14.7492 31.9068 16.0678C31.9293 17.542 31.9645 19.0157 31.9808 20.49C31.9877 21.0858 31.9445 21.6831 31.9896 22.2768C32.0303 22.2837 32.0716 22.2895 32.1128 22.2952ZM27.4554 31.244C26.7991 31.9594 26.5053 32.8539 26.0419 33.7727C25.8099 33.2826 25.9704 32.9178 26.0892 32.5654C26.3527 31.7863 26.8455 31.15 27.3968 30.5539C27.4989 30.4431 27.5901 30.322 27.7345 30.1473C27.5713 30.1316 27.4823 30.1185 27.3933 30.1155C26.6642 30.0893 26.0899 29.7905 25.7989 29.1047C25.666 28.7916 25.489 28.6942 25.1732 28.7126C24.8198 28.7333 24.4649 28.7218 24.1106 28.7151C23.2449 28.6988 22.6157 28.2599 22.1815 27.5503C22.0615 27.3533 22.0486 27.0604 22.0661 26.817C22.0925 26.4308 22.0167 26.088 21.8277 25.7283C21.8277 26.5436 21.7971 27.3223 21.8351 28.0976C21.8893 29.2139 21.981 30.3296 22.0833 31.4426C22.1413 32.0661 22.2178 32.692 22.3488 33.3033C22.5086 34.0516 22.7247 34.789 22.9355 35.5258C23.2182 36.5152 23.6939 37.4193 24.2104 38.303C24.6012 38.9708 24.9274 39.6744 24.963 40.4514C25.0086 41.4512 25.0253 42.4544 24.8295 43.4495C24.4348 45.4527 24.0635 47.461 23.6734 49.4653C23.6024 49.8313 23.4656 50.1839 23.3941 50.5492C23.3125 50.9662 23.3872 51.1289 23.7479 51.2374C24.7798 51.5501 25.8189 51.84 26.8586 52.1273C27.0453 52.1781 27.2476 52.1919 27.4416 52.1887C28.68 52.1634 29.9202 52.1634 31.1551 52.0825C31.9505 52.0303 32.7459 51.9381 33.4801 51.5266C33.9974 51.2361 34.3842 50.8361 34.7396 50.3922C34.8373 50.2699 34.876 50.0609 34.8649 49.897C34.8123 49.1149 34.7571 48.3315 34.6594 47.5536C34.4505 45.8794 34.1643 44.213 34.0066 42.5346C33.8872 41.2657 33.8953 39.9827 33.8877 38.7062C33.8801 37.5239 34.3479 36.4938 35.0029 35.5306C35.6661 34.5555 36.3467 33.5877 36.9378 32.5688C37.3187 31.9123 37.7152 31.1916 37.8129 30.4606C37.9635 29.3247 37.8095 28.1726 36.7564 27.3993C35.2001 26.2551 33.5666 25.2365 31.8211 24.4028C31.122 24.0692 30.4004 23.7904 29.6138 23.8529C29.1485 23.8901 28.6729 23.9789 28.2347 24.1356C27.4959 24.4002 26.7784 24.7283 26.0593 25.0462C25.1968 25.4273 24.3368 25.8152 23.4865 26.2234C23.1897 26.3664 22.9001 26.5501 22.6546 26.7685C22.3656 27.0252 22.3688 27.356 22.5934 27.6708C22.878 28.0687 23.2971 28.2765 23.7536 28.294C24.949 28.3399 26.155 28.4192 27.3182 28.0287C27.6513 27.917 27.9768 27.7747 28.2894 27.6154C28.7004 27.4066 28.7021 27.3977 28.9763 27.8126C29.2135 28.1721 29.4351 28.5448 29.6995 28.8841C30.559 29.987 31.5687 30.8548 33.062 30.9199C33.2431 30.9279 33.2431 30.9403 33.4502 31.2629C32.9978 31.3868 32.5884 31.2971 32.1866 31.1555C31.411 30.881 30.7632 30.4059 30.1761 29.8401C29.9804 29.6509 29.7899 29.4565 29.5942 29.2618C28.7358 29.8089 28.109 30.5318 27.4554 31.244ZM29.0326 7.05666C28.9211 7.57159 28.8807 8.10859 28.8703 8.63686C28.8237 10.9389 28.8138 13.2416 28.7618 15.5432C28.7342 16.7604 28.648 17.9762 28.5857 19.1925C28.5448 19.9966 28.52 20.8026 28.446 21.604C28.4085 22.0106 28.2687 22.4065 28.1933 22.8108C28.1476 23.0536 28.1365 23.3028 28.1062 23.5911C28.2759 23.5805 28.3729 23.5922 28.4582 23.5662C29.4105 23.2791 30.336 23.4175 31.219 23.8014C32.993 24.572 34.6373 25.5738 36.2047 26.7046C36.3444 26.8053 36.4916 26.8965 36.7178 27.0471C36.7178 26.7082 36.7339 26.445 36.715 26.1843C36.6734 25.6175 36.615 25.0522 36.5621 24.486C36.5132 23.9591 36.4621 23.4324 36.4102 22.9058C36.4026 22.8281 36.3789 22.7508 36.3755 22.6729C36.3396 21.9083 36.3125 21.1433 36.272 20.3789C36.1879 18.7916 36.0962 17.2041 36.009 15.6167C35.9727 14.9512 35.9617 14.2832 35.8982 13.62C35.7884 12.4699 35.7261 11.3113 35.4272 10.1879C35.3769 10.0005 35.2886 9.8196 35.1923 9.65017C35.0452 9.39018 34.8102 9.26972 34.5077 9.26466C34.1895 9.25938 34.1334 9.51891 34.0406 9.72305C33.6838 10.5058 33.5997 11.3561 33.5256 12.1924C33.3994 13.6181 33.3656 15.0521 33.2562 16.4795C33.1542 17.8073 33.0155 19.1328 32.8689 20.4566C32.8043 21.0389 32.6958 21.6187 32.5716 22.1915C32.533 22.3676 32.4077 22.5621 32.2634 22.666C32.1477 22.7488 31.9264 22.7564 31.7827 22.7069C31.6215 22.6508 31.5723 22.4936 31.5723 22.2791C31.573 20.1576 31.551 18.0355 31.5245 15.914C31.5082 14.5961 31.4857 13.2779 31.4436 11.9607C31.3852 10.1325 31.3107 8.30422 30.8744 6.51529C30.8022 6.2192 30.682 5.93484 30.5898 5.66082C29.7781 5.76243 29.205 6.26035 29.0326 7.05666ZM24.1837 25.3611C24.6837 25.1221 24.6796 25.0772 24.6047 24.5455C24.5302 24.0237 24.484 23.4959 24.4608 22.9692C24.4371 22.4389 24.4596 21.9067 24.4568 21.3757C24.4543 20.8288 24.0428 20.453 23.513 20.5822C23.118 20.6785 22.7263 20.8428 22.3762 21.05C21.8937 21.3359 21.6548 21.7536 21.6962 22.3727C21.7615 23.3453 22.127 25.4821 22.4373 26.1646C23.0438 25.8869 23.6173 25.6319 24.1837 25.3611ZM27.6961 23.7908C27.7722 22.7212 27.8485 21.6562 27.9306 20.5159C27.2253 20.1332 26.4616 19.998 25.661 20.4474C25.5922 20.4858 25.5295 20.5357 25.458 20.5658C25.0019 20.7578 24.8357 21.0847 24.8702 21.586C24.9355 22.5233 24.9435 23.4642 24.9833 24.4032C24.9895 24.557 25.0375 24.709 25.0791 24.9338C26.0067 24.5285 26.8639 24.154 27.6961 23.7908ZM26.0938 28.7682C26.2065 29.5576 27.1924 30.0027 27.8271 29.5746C28.0494 29.425 28.1354 29.2349 28.0724 28.973C28.0274 28.7854 27.9938 28.5956 27.9506 28.3878C27.3037 28.5206 26.6977 28.6445 26.0938 28.7682ZM28.7729 28.0165C28.2637 28.214 28.2637 28.214 28.5395 29.4245C28.8103 29.2464 29.0533 29.0864 29.3565 28.8875C29.1273 28.5455 28.9464 28.2763 28.7729 28.0165Z" fill="black"/>
</svg>
