<svg width="58" height="58" viewBox="0 0 58 58" fill="none" xmlns="http://www.w3.org/2000/svg">
<rect width="57.2554" height="57.2554" transform="translate(0.127441)" fill="#F6F1EB"/>
<path fill-rule="evenodd" clip-rule="evenodd" d="M31.3673 18.4967C31.455 17.9209 31.5696 17.3477 31.625 16.7689C31.7063 15.9245 31.7368 15.0755 31.8031 14.23C31.9015 12.9644 31.9895 11.697 32.1262 10.4352C32.2325 9.45316 32.3783 8.47349 32.5597 7.50234C32.6522 7.01002 32.8248 6.52291 33.1884 6.13865C33.5222 5.78632 33.6822 5.75038 34.085 6.0216C34.6145 6.37795 34.9113 6.8925 35.0444 7.51227C35.1926 8.20369 35.3286 8.89132 35.3597 9.60402C35.3999 10.5099 35.5233 11.4115 35.5896 12.3167C35.6434 13.0413 35.626 13.7729 35.7109 14.4931C35.8528 15.6993 35.9251 16.9062 35.9066 18.1195C35.9025 18.3622 35.909 18.6059 35.928 18.8476C36.0091 19.8535 36.1023 20.858 36.1812 21.8639C36.2575 22.8483 36.3132 23.8346 36.4002 24.8183C36.4123 24.9569 36.5334 25.0978 36.6313 25.2146C37.3979 26.1295 37.6564 27.2224 37.4523 28.3383C37.3102 29.1132 36.9212 29.8703 36.5191 30.5651C35.9125 31.6147 35.1973 32.6027 34.5296 33.6178C34.0831 34.2969 33.6235 34.9848 33.4991 35.7994C33.2442 37.4686 33.3481 39.1456 33.5158 40.8158C33.5947 41.598 33.7462 42.3729 33.8513 43.1532C34.0539 44.6512 34.2638 46.1492 34.4317 47.6521C34.4754 48.0404 34.4973 48.5167 34.3135 48.8252C33.9868 49.3729 33.5212 49.8378 32.9135 50.1409C32.2644 50.4651 31.5903 50.6042 30.8722 50.6921C29.2882 50.8867 27.7036 50.812 26.1182 50.8274C26.0383 50.8286 25.9558 50.8096 25.8783 50.7877C24.7855 50.4758 23.6798 50.2015 22.6065 49.8352C21.6159 49.4975 21.6835 49.3183 21.7325 48.3764C21.7348 48.336 21.7503 48.2967 21.7588 48.2575C22.0877 46.737 22.4267 45.2185 22.7435 43.6956C23.0925 42.013 23.4085 40.3263 23.3429 38.5921C23.3179 37.9326 23.2088 37.3085 22.9059 36.7202C22.4712 35.8741 21.9552 35.0574 21.6281 34.1721C21.1946 32.9999 20.8824 31.7798 20.5743 30.5663C20.4363 30.0231 20.4204 29.4464 20.3774 28.8826C20.2949 27.797 20.2083 26.7105 20.1677 25.6225C20.1289 24.5726 20.108 23.5194 20.1553 22.4707C20.1774 21.9812 20.1665 21.5118 20.0997 21.0273C20.0155 20.4095 19.9946 19.78 19.9922 19.1557C19.9917 18.9538 20.0906 18.7126 20.2238 18.5568C20.6722 18.0316 21.2764 17.7611 21.9367 17.5702C22.4073 17.4343 22.7625 17.6967 23.1643 17.8053C23.2395 17.8256 23.3117 17.8552 23.4104 17.8892C24.5812 16.8566 25.8369 16.9013 27.0883 17.6655C27.2417 17.5589 27.3451 17.4941 27.4404 17.4196C28.0225 16.9639 28.6643 16.805 29.3861 17.0171C29.7552 17.1259 30.1218 17.2463 30.4961 17.3333C30.9114 17.4295 31.0943 17.7237 31.2094 18.0855C31.2505 18.2146 31.2619 18.3529 31.2864 18.4872C31.3133 18.4901 31.3402 18.4934 31.3673 18.4967ZM28.5556 26.8552C27.6792 27.3877 27.0403 28.1342 26.3619 28.859C25.6693 29.5994 25.3706 30.5391 24.8513 31.3724C24.6357 30.6393 24.9657 30.0252 25.3062 29.4577C25.6562 28.8744 26.126 28.3622 26.5809 27.7708C26.4584 27.7538 26.354 27.7301 26.249 27.7259C25.4912 27.6932 24.9051 27.3688 24.6159 26.662C24.4752 26.3182 24.2602 26.273 23.9525 26.2846C23.6068 26.2976 23.2604 26.2872 22.9149 26.2856C22.0183 26.2813 21.3615 25.8403 20.9017 25.117C20.7733 24.9157 20.7428 24.6147 20.7638 24.3676C20.7968 23.9675 20.7138 23.6116 20.5112 23.1754C20.5112 24.0481 20.4791 24.8332 20.5184 25.615C20.5783 26.7833 20.6658 27.9517 20.7854 29.1153C20.8636 29.8763 20.9913 30.6348 21.1482 31.3837C21.2845 32.0354 21.4433 32.6906 21.6809 33.3109C22.0128 34.1759 22.3269 35.0742 22.8272 35.8434C23.8256 37.3781 23.964 39.0409 23.7014 40.7443C23.3443 43.0581 22.8619 45.3528 22.4237 47.6536C22.3557 48.0106 22.2177 48.3537 22.1443 48.7094C22.0492 49.17 22.1245 49.3398 22.528 49.4611C23.5964 49.7817 24.6704 50.0828 25.7473 50.3727C25.9779 50.4346 26.2309 50.4351 26.4727 50.4304C27.6925 50.4041 28.9142 50.3994 30.1308 50.3239C30.9764 50.2717 31.8176 50.1691 32.593 49.738C33.1284 49.4396 33.5231 49.0206 33.8879 48.5621C33.9875 48.4363 34.0158 48.2178 34.0032 48.048C33.9452 47.2428 33.8753 46.4386 33.7835 45.6384C33.6551 44.5155 33.5022 43.3958 33.361 42.275C33.2426 41.3341 33.0714 40.396 33.0219 39.4516C32.9653 38.3622 32.9915 37.2662 33.0267 36.1747C33.0711 34.8337 33.8154 33.7796 34.5377 32.7216C35.0059 32.0359 35.4524 31.3357 35.9235 30.6521C36.4366 29.9079 36.7647 29.0803 37.0286 28.2295C37.1211 27.9313 37.0852 27.5941 37.1069 27.2747C37.1081 27.2555 37.0957 27.2361 37.0912 27.2165C36.7026 25.2688 36.7702 25.5159 35.0439 24.2808C33.7226 23.335 32.3048 22.5336 30.8318 21.8365C30.1277 21.5031 29.399 21.2208 28.6067 21.2834C28.1057 21.3231 27.5983 21.426 27.1211 21.5828C26.4853 21.7913 25.8697 22.0663 25.2572 22.3373C24.2172 22.7975 23.1831 23.2714 22.1526 23.7526C21.916 23.863 21.6844 24.0035 21.4845 24.1709C21.0329 24.5492 21.0374 24.933 21.4474 25.3671C21.7453 25.6823 22.1329 25.8384 22.5359 25.8538C23.7937 25.9018 25.0608 25.9734 26.2806 25.5556C26.6054 25.4447 26.919 25.2971 27.2257 25.1423C27.6043 24.9514 27.6544 24.9488 27.8703 25.2697C28.1062 25.6211 28.3211 25.9879 28.5725 26.3281C29.4553 27.5258 30.5148 28.4542 32.1029 28.5516C32.3519 28.5667 32.3512 28.5757 32.5381 28.9507C30.7707 29.0311 29.6674 27.9529 28.5556 26.8552ZM35.9201 24.4934C35.9261 24.2711 35.9518 24.0427 35.9351 23.8176C35.8146 22.2293 35.6719 20.6421 35.563 19.0531C35.5021 18.1671 35.5093 17.2768 35.4555 16.3905C35.3847 15.2226 35.2827 14.0566 35.1966 12.8894C35.1845 12.7282 35.1916 12.5653 35.1792 12.4042C35.1027 11.4402 35.043 10.474 34.9367 9.51322C34.8549 8.77356 34.7325 8.03651 34.5874 7.30631C34.5342 7.03934 34.4053 6.76268 34.2365 6.54939C33.8995 6.12447 33.4197 6.19682 33.1827 6.6759C32.8441 7.36022 32.7409 8.10744 32.6741 8.84852C32.5366 10.3754 32.462 11.9076 32.3419 13.4359C32.2335 14.8218 32.1008 16.2058 31.9748 17.5901C31.9455 17.9117 31.911 18.2338 31.8578 18.552C31.7753 19.0474 31.7151 19.553 31.3868 19.9701C31.3378 20.0318 31.2871 20.1051 31.2752 20.1794C31.2011 20.6331 31.1385 21.089 31.0767 21.5111C32.6883 22.5033 34.2728 23.4792 35.9201 24.4934ZM22.9946 22.8145C23.4699 22.5863 23.4691 22.527 23.3959 22.011C23.3201 21.4742 23.267 20.9318 23.2418 20.3903C23.2169 19.8452 23.2406 19.2976 23.2383 18.7511C23.2359 18.1569 22.7948 17.7805 22.2185 17.9282C21.849 18.0228 21.4768 18.1633 21.1501 18.3567C20.6392 18.6589 20.3567 19.0718 20.3788 19.7438C20.4223 21.0916 20.8099 22.3574 21.0726 23.6979C21.7798 23.374 22.3923 23.1042 22.9946 22.8145ZM30.6344 21.3771C30.7169 20.8651 30.8206 20.4014 30.8596 19.9327C30.9022 19.4092 30.8924 18.8802 30.8924 18.3536C30.8931 17.8469 30.8047 17.7076 30.3158 17.5613C29.9487 17.4511 29.5678 17.365 29.1869 17.3248C28.246 17.2259 27.3641 17.8672 27.2065 18.8039C27.0969 19.456 27.0831 20.1243 27.0334 20.7859C27.0279 20.8568 27.074 20.9313 27.1147 21.0635C28.3121 20.6348 29.4463 20.8777 30.6344 21.3771ZM26.589 21.2208C26.6679 20.1063 26.7442 19.029 26.8277 17.8556C26.1686 17.4657 25.4158 17.3494 24.6102 17.7041C24.5734 17.7204 24.5406 17.745 24.5054 17.7663C23.4982 18.3737 23.6741 18.181 23.6812 19.1666C23.6877 20.0725 23.7416 20.9781 23.7847 21.8833C23.7925 22.0368 23.8515 22.1879 23.8981 22.3891C24.8654 21.9692 25.753 21.5835 26.589 21.2208ZM24.9293 26.3373C24.8982 26.7495 25.0965 27.0349 25.47 27.1612C25.7494 27.2553 26.0616 27.3137 26.3548 27.2976C26.8379 27.2711 27.0395 26.9529 26.9506 26.4693C26.9183 26.2948 26.8869 26.12 26.8553 25.9474C26.2062 26.0784 25.5794 26.2054 24.9293 26.3373ZM28.294 26.4509C28.0755 26.1264 27.8796 25.8358 27.6891 25.553C27.1789 25.7887 27.1703 25.8528 27.4825 27.0335C27.7752 26.8235 28.0135 26.6526 28.294 26.4509Z" fill="black"/>
</svg>
