<svg width="21" height="21" viewBox="0 0 21 21" fill="none" xmlns="http://www.w3.org/2000/svg">
<path d="M9.74707 1.48193C11.9201 1.42249 14.0334 2.19815 15.6523 3.64893C17.2711 5.09962 18.2729 7.11538 18.4512 9.28174C18.6294 11.4483 17.9704 13.6015 16.6104 15.2974L16.3291 15.6479L16.6484 15.9653L20.3496 19.6372H20.3506C20.4407 19.7304 20.4912 19.8552 20.4912 19.9849C20.4912 20.1135 20.4413 20.2366 20.3525 20.3296C20.3065 20.3754 20.2523 20.412 20.1924 20.437C20.1315 20.4623 20.0659 20.4761 20 20.4761C19.9341 20.476 19.8684 20.4623 19.8076 20.437C19.7469 20.4116 19.6919 20.3744 19.6455 20.3276L19.6436 20.3267L15.9639 16.646L15.6475 16.3296L15.2979 16.6099C13.602 17.97 11.4488 18.6289 9.28223 18.4507C7.11587 18.2724 5.10011 17.2706 3.64941 15.6519C2.19864 14.033 1.42298 11.9196 1.48242 9.74658C1.54188 7.57352 2.43159 5.50542 3.96875 3.96826C5.50591 2.4311 7.57401 1.5414 9.74707 1.48193ZM12.8701 3.0708C11.4998 2.50326 9.99184 2.35468 8.53711 2.64404C7.08229 2.93345 5.74613 3.64791 4.69727 4.69678C3.6484 5.74565 2.93393 7.08181 2.64453 8.53662C2.35517 9.99136 2.50375 11.4993 3.07129 12.8696C3.63895 14.2401 4.60062 15.4117 5.83398 16.2358C7.0672 17.0598 8.51686 17.4994 10 17.4995C11.9891 17.4995 13.8972 16.7097 15.3037 15.3032C16.7102 13.8967 17.5 11.9886 17.5 9.99951C17.4999 8.51637 17.0603 7.06671 16.2363 5.8335C15.4122 4.60013 14.2406 3.63846 12.8701 3.0708Z" stroke="#01959F"/>
</svg>
